<svg xmlns="http://www.w3.org/2000/svg" viewBox="0 0 220 220" role="img" aria-labelledby="title desc">
  <title id="title">NTA logo badge</title>
  <desc id="desc">Stylized National Testing Agency badge</desc>
  <defs>
    <linearGradient id="ntaBg" x1="0%" y1="0%" x2="100%" y2="100%">
      <stop offset="0%" stop-color="#0f2e5f"/>
      <stop offset="100%" stop-color="#1d4ed8"/>
    </linearGradient>
  </defs>
  <rect width="220" height="220" rx="52" fill="url(#ntaBg)"/>
  <circle cx="110" cy="82" r="44" fill="#fff" opacity="0.96"/>
  <path d="M78 82c8-15 20-23 32-23 11 0 23 8 32 23-9 10-20 16-32 16-12 0-24-6-32-16Z" fill="#16a34a"/>
  <path d="M95 88c0-18 6-32 15-40 9 8 15 22 15 40 0 18-6 33-15 41-9-8-15-23-15-41Z" fill="#f59e0b"/>
  <text x="110" y="150" text-anchor="middle" font-family="Segoe UI, Arial, sans-serif" font-size="52" font-weight="800" fill="#ffffff">NTA</text>
  <text x="110" y="180" text-anchor="middle" font-family="Segoe UI, Arial, sans-serif" font-size="13" letter-spacing="1.8" fill="#dbeafe">NATIONAL TESTING AGENCY</text>
</svg>
